<svg width="20" height="20" viewBox="0 0 20 20" fill="none" xmlns="http://www.w3.org/2000/svg">
<path d="M6 16C4.9 16 4.01 16.9 4.01 18C4.01 19.1 4.9 20 6 20C7.1 20 8 19.1 8 18C8 16.9 7.1 16 6 16ZM16 16C14.9 16 14.01 16.9 14.01 18C14.01 19.1 14.9 20 16 20C17.1 20 18 19.1 18 18C18 16.9 17.1 16 16 16ZM18 14C18 13.45 17.55 13 17 13H6L7.1 11H14.55C15.3 11 15.96 10.59 16.3 9.97001L19.54 3.83001C19.6617 3.59868 19.6879 3.32891 19.6132 3.07846C19.5384 2.82801 19.3686 2.61678 19.14 2.49001C19.024 2.42649 18.8966 2.3867 18.7651 2.37296C18.6336 2.35921 18.5007 2.37179 18.3741 2.40996C18.2475 2.44812 18.1297 2.51111 18.0278 2.59524C17.9258 2.67938 17.8415 2.78298 17.78 2.90001L14.55 9.00001H7.53L3.54 0.570006C3.45993 0.399086 3.33266 0.254618 3.17321 0.153629C3.01375 0.0526397 2.82875 -0.000661832 2.64 6.20319e-06H1C0.45 6.20319e-06 0 0.450006 0 1.00001C0 1.55001 0.45 2.00001 1 2.00001H2L5.6 9.59001L4.25 12.03C3.52 13.37 4.48 15 6 15H17C17.55 15 18 14.55 18 14ZM10.29 0.710006C10.3825 0.617303 10.4924 0.543755 10.6134 0.493574C10.7343 0.443392 10.864 0.417562 10.995 0.417562C11.126 0.417562 11.2557 0.443392 11.3766 0.493574C11.4976 0.543755 11.6075 0.617303 11.7 0.710006L14.29 3.30001C14.68 3.69001 14.68 4.32001 14.29 4.71001L11.7 7.30001C11.6074 7.39259 11.4975 7.46603 11.3765 7.51613C11.2556 7.56624 11.1259 7.59203 10.995 7.59203C10.8641 7.59203 10.7344 7.56624 10.6135 7.51613C10.4925 7.46603 10.3826 7.39259 10.29 7.30001C10.1974 7.20742 10.124 7.09751 10.0739 6.97655C10.0238 6.85559 9.99798 6.72594 9.99798 6.59501C9.99798 6.46408 10.0238 6.33443 10.0739 6.21346C10.124 6.0925 10.1974 5.98259 10.29 5.89001L11.17 5.00001H8C7.45 5.00001 7 4.55001 7 4.00001C7 3.45001 7.45 3.00001 8 3.00001H11.17L10.29 2.12001C10.1973 2.02749 10.1237 1.9176 10.0736 1.79663C10.0234 1.67566 9.99756 1.54597 9.99756 1.41501C9.99756 1.28404 10.0234 1.15436 10.0736 1.03338C10.1237 0.912409 10.1973 0.80252 10.29 0.710006Z" fill="#DA498C"/>
</svg>
