<svg width="19" height="14" viewBox="0 0 19 14" fill="none" xmlns="http://www.w3.org/2000/svg">
<path d="M0.0426617 0.501442C0.180042 0.110682 0.608192 -0.0947283 0.998962 0.0426617L1.30036 0.148622C1.91689 0.365352 2.44052 0.549432 2.85261 0.751632C3.29324 0.967832 3.67109 1.23417 3.95527 1.65003C4.23725 2.06267 4.35366 2.51539 4.40739 3.01177C4.43145 3.23397 4.44413 3.47991 4.45082 3.75024H15.0891C16.774 3.75024 18.2908 3.75024 18.7347 4.32732C19.1787 4.90441 19.0051 5.77393 18.658 7.51299L18.1582 9.93774C17.8431 11.4666 17.6856 12.231 17.1338 12.6806C16.5821 13.1302 15.8016 13.1302 14.2406 13.1302H8.93768C6.14877 13.1302 4.75432 13.1302 3.88792 12.2164C3.02152 11.3025 2.95828 10.3318 2.95828 7.39024V4.78856C2.95828 4.04861 2.95726 3.5534 2.9161 3.17319C2.87677 2.80984 2.80707 2.62842 2.71681 2.49633C2.62875 2.36747 2.49508 2.24704 2.19186 2.09826C1.86901 1.93985 1.43026 1.7843 0.762652 1.54958L0.501442 1.45774C0.110682 1.32036 -0.0947283 0.892212 0.0426617 0.501442Z" fill="#DBF8F9"/>
</svg>
