<svg width="20" height="20" viewBox="0 0 20 20" fill="none" xmlns="http://www.w3.org/2000/svg">
<path d="M4.75 0.75C3.82 0.75 3.355 0.75 2.974 0.852C2.46513 0.988251 2.0011 1.2561 1.6286 1.6286C1.2561 2.0011 0.988251 2.46513 0.852 2.974C0.75 3.355 0.75 3.82 0.75 4.75V14.75C0.75 15.68 0.75 16.145 0.852 16.526C0.988251 17.0349 1.2561 17.4989 1.6286 17.8714C2.0011 18.2439 2.46513 18.5117 2.974 18.648C3.355 18.75 3.82 18.75 4.75 18.75M14.25 14.25C14.25 14.25 18.75 10.936 18.75 9.75C18.75 8.564 14.25 5.25 14.25 5.25M17.75 9.75H5.75" stroke="#CD0F0F" stroke-width="1.5" stroke-linecap="round" stroke-linejoin="round"/>
</svg>
