<svg width="19" height="19" viewBox="0 0 19 19" fill="none" xmlns="http://www.w3.org/2000/svg">
<path d="M0.987368 0.038693C0.594418 -0.092297 0.169678 0.120073 0.0386882 0.513033C-0.0922918 0.905993 0.120078 1.33073 0.513028 1.46171L0.777938 1.55002C1.45435 1.77548 1.90155 1.92575 2.231 2.07901C2.54296 2.22413 2.67784 2.34093 2.76426 2.46083C2.85068 2.58073 2.91883 2.74562 2.95785 3.08746C2.99907 3.44847 3.0002 3.92024 3.0002 4.63324V7.30508C3.00018 8.67264 3.00017 9.77494 3.11673 10.6419C3.23774 11.542 3.49664 12.2999 4.09855 12.9018C4.70047 13.5037 5.45834 13.7626 6.35845 13.8836C7.22542 14.0002 8.32773 14.0002 9.6953 14.0002H16.7502C17.1644 14.0002 17.5002 13.6644 17.5002 13.2502C17.5002 12.8359 17.1644 12.5002 16.7502 12.5002H9.7502C8.31479 12.5002 7.31367 12.4986 6.55832 12.397C5.82455 12.2984 5.43598 12.1179 5.15921 11.8412C4.92403 11.606 4.75839 11.29 4.6534 10.7502H14.7722C15.7317 10.7502 16.2114 10.7502 16.5871 10.5024C16.9628 10.2547 17.1517 9.81384 17.5297 8.93194L17.9582 7.93194C18.7677 6.04314 19.1725 5.09873 18.7279 4.42446C18.2833 3.7502 17.2558 3.7502 15.2008 3.7502H4.49526C4.48936 3.44251 4.47644 3.16491 4.44817 2.91732C4.39282 2.4325 4.27222 1.98764 3.98112 1.58376C3.69002 1.17989 3.30613 0.924803 2.8637 0.718973C2.44746 0.525343 1.91814 0.348923 1.29176 0.140153L0.987368 0.038693Z" fill="#8E8FA9"/>
<path d="M6.25 15.7502C7.07843 15.7502 7.75 16.4218 7.75 17.2502C7.75 18.0786 7.07843 18.7502 6.25 18.7502C5.42157 18.7502 4.75 18.0786 4.75 17.2502C4.75 16.4218 5.42157 15.7502 6.25 15.7502Z" fill="#8E8FA9"/>
<path d="M15.25 15.7502C16.0784 15.7502 16.75 16.4217 16.75 17.2502C16.75 18.0786 16.0784 18.7502 15.25 18.7502C14.4216 18.7502 13.75 18.0786 13.75 17.2502C13.75 16.4217 14.4216 15.7502 15.25 15.7502Z" fill="#8E8FA9"/>
</svg>
