<svg width="16" height="20" viewBox="0 0 16 20" fill="none" xmlns="http://www.w3.org/2000/svg">
<path fill-rule="evenodd" clip-rule="evenodd" d="M12.4924 5.063C12.4924 8.258 10.5624 11 7.99241 11C5.42041 11 3.49241 8.258 3.49241 5.062C3.49241 1.868 5.15241 0 7.99241 0C10.8324 0 12.4924 1.867 12.4924 5.063ZM0.0944056 18.142C0.479406 18.6 2.13741 20 7.99241 20C13.8474 20 15.5044 18.6 15.8904 18.143C15.9262 18.0991 15.9527 18.0483 15.9681 17.9938C15.9836 17.9393 15.9878 17.8822 15.9804 17.826C15.8924 16.944 15.0984 13 7.99241 13C0.886405 13 0.0924055 16.944 0.00340548 17.826C-0.0038366 17.8823 0.000499859 17.9394 0.0161489 17.9939C0.031798 18.0484 0.0584293 18.0982 0.0944056 18.142Z" fill="#8E8EA9"/>
</svg>
